<svg version="1.1" viewBox="0.0 0.0 960.0 720.0" fill="none" stroke="none" stroke-linecap="square" stroke-miterlimit="10" xmlns:xlink="http://www.w3.org/1999/xlink" xmlns="http://www.w3.org/2000/svg"><clipPath id="p.0"><path d="m0 0l960.0 0l0 720.0l-960.0 0l0 -720.0z" clip-rule="nonzero"/></clipPath><g clip-path="url(#p.0)"><path fill="#000000" fill-opacity="0.0" d="m0 0l960.0 0l0 720.0l-960.0 0z" fill-rule="evenodd"/><path fill="#9fc5e8" d="m271.29135 161.3776l0 0c0 -12.854553 10.420654 -23.275238 23.275208 -23.275238l370.86685 0c6.1729736 0 12.09314 2.4522095 16.458069 6.817169c4.36499 4.3649445 6.8171997 10.285095 6.8171997 16.458069l0 45.00859c0 12.854553 -10.420715 23.275238 -23.275269 23.275238l-370.86685 0c-12.854553 0 -23.275208 -10.420685 -23.275208 -23.275238z" fill-rule="evenodd"/><path stroke="#000000" stroke-width="3.0" stroke-linejoin="round" stroke-linecap="butt" d="m271.29135 161.3776l0 0c0 -12.854553 10.420654 -23.275238 23.275208 -23.275238l370.86685 0c6.1729736 0 12.09314 2.4522095 16.458069 6.817169c4.36499 4.3649445 6.8171997 10.285095 6.8171997 16.458069l0 45.00859c0 12.854553 -10.420715 23.275238 -23.275269 23.275238l-370.86685 0c-12.854553 0 -23.275208 -10.420685 -23.275208 -23.275238z" fill-rule="evenodd"/><path fill="#000000" d="m340.58203 198.28189l0 -28.640625l8.65625 0l5.203125 19.53125l5.125 -19.53125l8.671875 0l0 28.640625l-5.359375 0l0 -22.546875l-5.6875 22.546875l-5.5625 0l-5.671875 -22.546875l0 22.546875l-5.375 0zm45.382812 -6.609375l5.46875 0.921875q-1.0625 3.015625 -3.34375 4.59375q-2.265625 1.5625 -5.6875 1.5625q-5.40625 0 -8.0 -3.53125q-2.0625 -2.84375 -2.0625 -7.15625q0 -5.15625 2.6875 -8.078125q2.703125 -2.921875 6.828125 -2.921875q4.625 0 7.296875 3.0625q2.6875 3.0625 2.5625 9.359375l-13.75 0q0.0625 2.453125 1.328125 3.8125q1.28125 1.34375 3.171875 1.34375q1.28125 0 2.15625 -0.703125q0.890625 -0.703125 1.34375 -2.265625zm0.3125 -5.546875q-0.0625 -2.375 -1.234375 -3.609375q-1.171875 -1.25 -2.859375 -1.25q-1.796875 0 -2.96875 1.3125q-1.171875 1.3125 -1.140625 3.546875l8.203125 0zm28.777344 12.15625l-5.484375 0l0 -10.59375q0 -3.359375 -0.359375 -4.34375q-0.34375 -0.984375 -1.140625 -1.53125q-0.78125 -0.546875 -1.890625 -0.546875q-1.4375 0 -2.578125 0.78125q-1.125 0.78125 -1.546875 2.078125q-0.40625 1.28125 -0.40625 4.765625l0 9.390625l-5.5 0l0 -20.75l5.109375 0l0 3.046875q2.703125 -3.515625 6.828125 -3.515625q1.8125 0 3.3125 0.65625q1.515625 0.65625 2.28125 1.671875q0.78125 1.015625 1.078125 2.3125q0.296875 1.28125 0.296875 3.6875l0 12.890625zm19.230469 0l0 -3.109375q-1.140625 1.65625 -2.984375 2.625q-1.84375 0.953125 -3.890625 0.953125q-2.09375 0 -3.765625 -0.921875q-1.65625 -0.921875 -2.40625 -2.578125q-0.734375 -1.65625 -0.734375 -4.59375l0 -13.125l5.5 0l0 9.53125q0 4.375 0.296875 5.375q0.296875 0.984375 1.09375 1.5625q0.8125 0.5625 2.046875 0.5625q1.40625 0 2.515625 -0.765625q1.109375 -0.765625 1.515625 -1.90625q0.421875 -1.15625 0.421875 -5.609375l0 -8.75l5.484375 0l0 20.75l-5.09375 0zm-6.875 -23.28125l2.6875 -5.84375l6.15625 0l-5.375 5.84375l-3.46875 0zm28.796875 23.28125l0 -28.640625l9.28125 0q5.28125 0 6.875 0.4375q2.46875 0.640625 4.125 2.796875q1.65625 2.15625 1.65625 5.578125q0 2.640625 -0.953125 4.4375q-0.953125 1.796875 -2.4375 2.828125q-1.46875 1.015625 -3.0 1.34375q-2.0625 0.421875 -5.984375 0.421875l-3.78125 0l0 10.796875l-5.78125 0zm5.78125 -23.796875l0 8.125l3.171875 0q3.421875 0 4.5625 -0.4375q1.15625 -0.453125 1.8125 -1.40625q0.65625 -0.96875 0.65625 -2.234375q0 -1.5625 -0.921875 -2.578125q-0.921875 -1.015625 -2.328125 -1.265625q-1.03125 -0.203125 -4.15625 -0.203125l-2.796875 0zm26.117188 23.796875l-5.484375 0l0 -20.75l5.09375 0l0 2.953125q1.3125 -2.09375 2.359375 -2.75q1.046875 -0.671875 2.375 -0.671875q1.875 0 3.609375 1.046875l-1.703125 4.78125q-1.390625 -0.90625 -2.578125 -0.90625q-1.15625 0 -1.953125 0.640625q-0.796875 0.640625 -1.265625 2.296875q-0.453125 1.65625 -0.453125 6.953125l0 6.40625zm10.316406 -23.5625l0 -5.078125l5.484375 0l0 5.078125l-5.484375 0zm0 23.5625l0 -20.75l5.484375 0l0 20.75l-5.484375 0zm29.972656 0l-5.484375 0l0 -10.59375q0 -3.359375 -0.359375 -4.34375q-0.34375 -0.984375 -1.140625 -1.53125q-0.78125 -0.546875 -1.890625 -0.546875q-1.4375 0 -2.578125 0.78125q-1.125 0.78125 -1.546875 2.078125q-0.40625 1.28125 -0.40625 4.765625l0 9.390625l-5.5 0l0 -20.75l5.109375 0l0 3.046875q2.703125 -3.515625 6.828125 -3.515625q1.8125 0 3.3125 0.65625q1.515625 0.65625 2.28125 1.671875q0.78125 1.015625 1.078125 2.3125q0.296875 1.28125 0.296875 3.6875l0 12.890625zm23.652344 -14.609375l-5.40625 0.96875q-0.265625 -1.609375 -1.234375 -2.421875q-0.96875 -0.828125 -2.515625 -0.828125q-2.046875 0 -3.265625 1.421875q-1.21875 1.40625 -1.21875 4.71875q0 3.703125 1.234375 5.234375q1.234375 1.515625 3.328125 1.515625q1.5625 0 2.5625 -0.890625q1.0 -0.890625 1.40625 -3.0625l5.390625 0.921875q-0.84375 3.703125 -3.234375 5.609375q-2.375 1.890625 -6.375 1.890625q-4.546875 0 -7.265625 -2.875q-2.703125 -2.875 -2.703125 -7.953125q0 -5.125 2.71875 -7.984375q2.71875 -2.875 7.34375 -2.875q3.796875 0 6.03125 1.640625q2.234375 1.625 3.203125 4.96875zm4.1679688 -8.953125l0 -5.078125l5.484375 0l0 5.078125l-5.484375 0zm0 23.5625l0 -20.75l5.484375 0l0 20.75l-5.484375 0zm10.957031 -20.75l5.109375 0l0 3.046875q1.0 -1.5625 2.703125 -2.53125q1.703125 -0.984375 3.765625 -0.984375q3.609375 0 6.125 2.84375q2.53125 2.828125 2.53125 7.890625q0 5.1875 -2.546875 8.078125q-2.53125 2.875 -6.140625 2.875q-1.71875 0 -3.125 -0.6875q-1.390625 -0.6875 -2.9375 -2.34375l0 10.453125l-5.484375 0l0 -28.640625zm5.421875 10.03125q0 3.484375 1.390625 5.15625q1.390625 1.671875 3.375 1.671875q1.921875 0 3.1875 -1.53125q1.265625 -1.53125 1.265625 -5.03125q0 -3.265625 -1.3125 -4.84375q-1.296875 -1.578125 -3.234375 -1.578125q-2.015625 0 -3.34375 1.5625q-1.328125 1.546875 -1.328125 4.59375zm23.261719 -3.703125l-4.96875 -0.890625q0.828125 -3.015625 2.875 -4.453125q2.0625 -1.453125 6.109375 -1.453125q3.671875 0 5.46875 0.875q1.796875 0.875 2.515625 2.21875q0.734375 1.328125 0.734375 4.90625l-0.046875 6.40625q0 2.734375 0.25 4.03125q0.265625 1.296875 1.0 2.78125l-5.4375 0q-0.21875 -0.546875 -0.53125 -1.625q-0.125 -0.484375 -0.1875 -0.640625q-1.40625 1.359375 -3.015625 2.046875q-1.59375 0.6875 -3.40625 0.6875q-3.203125 0 -5.0625 -1.734375q-1.84375 -1.75 -1.84375 -4.40625q0 -1.75 0.84375 -3.125q0.84375 -1.375 2.359375 -2.109375q1.515625 -0.734375 4.359375 -1.28125q3.84375 -0.71875 5.328125 -1.34375l0 -0.546875q0 -1.59375 -0.78125 -2.265625q-0.78125 -0.671875 -2.9375 -0.671875q-1.46875 0 -2.296875 0.578125q-0.8125 0.578125 -1.328125 2.015625zm7.34375 4.453125q-1.046875 0.359375 -3.34375 0.84375q-2.28125 0.484375 -2.984375 0.953125q-1.0625 0.765625 -1.0625 1.9375q0 1.15625 0.859375 2.0q0.859375 0.828125 2.1875 0.828125q1.484375 0 2.828125 -0.96875q1.0 -0.75 1.3125 -1.8125q0.203125 -0.703125 0.203125 -2.6875l0 -1.09375zm10.808594 9.96875l0 -28.640625l5.484375 0l0 28.640625l-5.484375 0z" fill-rule="nonzero"/><path fill="#9fc5e8" d="m85.64567 337.4957l0 0c0 -12.854553 10.420677 -23.275238 23.27523 -23.275238l279.08734 0c6.1729736 0 12.093109 2.4522095 16.458069 6.817169c4.3649597 4.3649597 6.817169 10.285095 6.817169 16.458069l0 45.008606c0 12.854553 -10.420685 23.275238 -23.275238 23.275238l-279.08734 0c-12.854553 0 -23.27523 -10.420685 -23.27523 -23.275238z" fill-rule="evenodd"/><path stroke="#000000" stroke-width="3.0" stroke-linejoin="round" stroke-linecap="butt" d="m85.64567 337.4957l0 0c0 -12.854553 10.420677 -23.275238 23.27523 -23.275238l279.08734 0c6.1729736 0 12.093109 2.4522095 16.458069 6.817169c4.3649597 4.3649597 6.817169 10.285095 6.817169 16.458069l0 45.008606c0 12.854553 -10.420685 23.275238 -23.275238 23.275238l-279.08734 0c-12.854553 0 -23.27523 -10.420685 -23.27523 -23.275238z" fill-rule="evenodd"/><path fill="#000000" d="m108.48801 371.72l0 -22.90625l6.921875 0l4.15625 15.625l4.109375 -15.625l6.9375 0l0 22.90625l-4.296875 0l0 -18.03125l-4.546875 18.03125l-4.453125 0l-4.53125 -18.03125l0 18.03125l-4.296875 0zm36.296875 -5.28125l4.375 0.734375q-0.84375 2.40625 -2.671875 3.671875q-1.8125 1.25 -4.546875 1.25q-4.328125 0 -6.40625 -2.828125q-1.640625 -2.265625 -1.640625 -5.71875q0 -4.125 2.15625 -6.453125q2.15625 -2.34375 5.453125 -2.34375q3.703125 0 5.84375 2.453125q2.140625 2.4375 2.046875 7.484375l-11.0 0q0.046875 1.953125 1.0625 3.046875q1.015625 1.078125 2.53125 1.078125q1.03125 0 1.734375 -0.5625q0.703125 -0.5625 1.0625 -1.8125zm0.25 -4.4375q-0.046875 -1.90625 -0.984375 -2.890625q-0.9375 -1.0 -2.28125 -1.0q-1.4375 0 -2.375 1.046875q-0.9375 1.046875 -0.921875 2.84375l6.5625 0zm23.03125 9.71875l-4.390625 0l0 -8.46875q0 -2.6875 -0.28125 -3.46875q-0.28125 -0.796875 -0.921875 -1.234375q-0.625 -0.4375 -1.515625 -0.4375q-1.140625 0 -2.046875 0.625q-0.90625 0.625 -1.25 1.65625q-0.328125 1.03125 -0.328125 3.8125l0 7.515625l-4.390625 0l0 -16.59375l4.078125 0l0 2.4375q2.171875 -2.8125 5.46875 -2.8125q1.453125 0 2.65625 0.53125q1.203125 0.515625 1.8125 1.328125q0.625 0.8125 0.859375 1.84375q0.25 1.03125 0.25 2.953125l0 10.3125zm15.375 0l0 -2.484375q-0.90625 1.328125 -2.390625 2.09375q-1.46875 0.765625 -3.109375 0.765625q-1.671875 0 -3.0 -0.734375q-1.328125 -0.734375 -1.921875 -2.0625q-0.59375 -1.328125 -0.59375 -3.671875l0 -10.5l4.390625 0l0 7.625q0 3.5 0.234375 4.296875q0.25 0.78125 0.890625 1.25q0.640625 0.453125 1.625 0.453125q1.125 0 2.015625 -0.609375q0.890625 -0.625 1.21875 -1.53125q0.328125 -0.921875 0.328125 -4.484375l0 -7.0l4.390625 0l0 16.59375l-4.078125 0zm-5.296875 -18.625l2.15625 -4.671875l4.921875 0l-4.296875 4.671875l-2.78125 0zm38.03125 18.625l-4.078125 0l0 -2.4375q-1.015625 1.421875 -2.40625 2.125q-1.375 0.6875 -2.78125 0.6875q-2.859375 0 -4.90625 -2.296875q-2.03125 -2.3125 -2.03125 -6.4375q0 -4.21875 1.984375 -6.40625q1.984375 -2.203125 5.015625 -2.203125q2.78125 0 4.8125 2.3125l0 -8.25l4.390625 0l0 22.90625zm-11.71875 -8.65625q0 2.65625 0.734375 3.84375q1.0625 1.71875 2.96875 1.71875q1.515625 0 2.578125 -1.28125q1.0625 -1.296875 1.0625 -3.859375q0 -2.859375 -1.03125 -4.109375q-1.03125 -1.265625 -2.640625 -1.265625q-1.5625 0 -2.625 1.25q-1.046875 1.234375 -1.046875 3.703125zm25.65625 3.375l4.375 0.734375q-0.84375 2.40625 -2.671875 3.671875q-1.8125 1.25 -4.546875 1.25q-4.328125 0 -6.40625 -2.828125q-1.640625 -2.265625 -1.640625 -5.71875q0 -4.125 2.15625 -6.453125q2.15625 -2.34375 5.453125 -2.34375q3.703125 0 5.84375 2.453125q2.140625 2.4375 2.046875 7.484375l-11.0 0q0.046875 1.953125 1.0625 3.046875q1.015625 1.078125 2.53125 1.078125q1.03125 0 1.734375 -0.5625q0.703125 -0.5625 1.0625 -1.8125zm0.25 -4.4375q-0.046875 -1.90625 -0.984375 -2.890625q-0.9375 -1.0 -2.28125 -1.0q-1.4375 0 -2.375 1.046875q-0.9375 1.046875 -0.921875 2.84375l6.5625 0zm15.921875 -1.59375q0 -3.5 1.046875 -5.875q0.78125 -1.75 2.125 -3.140625q1.359375 -1.390625 2.96875 -2.0625q2.140625 -0.90625 4.9375 -0.90625q5.0625 0 8.09375 3.140625q3.046875 3.140625 3.046875 8.734375q0 5.546875 -3.015625 8.6875q-3.015625 3.125 -8.0625 3.125q-5.109375 0 -8.125 -3.109375q-3.015625 -3.125 -3.015625 -8.59375zm4.765625 -0.15625q0 3.890625 1.796875 5.90625q1.796875 2.0 4.5625 2.0q2.765625 0 4.53125 -1.984375q1.78125 -2.0 1.78125 -5.984375q0 -3.9375 -1.734375 -5.875q-1.71875 -1.9375 -4.578125 -1.9375q-2.859375 0 -4.609375 1.96875q-1.75 1.953125 -1.75 5.90625zm20.90625 -5.125l4.09375 0l0 2.4375q0.796875 -1.25 2.15625 -2.03125q1.359375 -0.78125 3.015625 -0.78125q2.890625 0 4.90625 2.265625q2.015625 2.265625 2.015625 6.3125q0 4.15625 -2.03125 6.46875q-2.03125 2.296875 -4.921875 2.296875q-1.375 0 -2.5 -0.546875q-1.109375 -0.546875 -2.34375 -1.875l0 8.359375l-4.390625 0l0 -22.90625zm4.34375 8.015625q0 2.796875 1.109375 4.140625q1.109375 1.328125 2.703125 1.328125q1.53125 0 2.546875 -1.21875q1.015625 -1.234375 1.015625 -4.03125q0 -2.609375 -1.046875 -3.875q-1.046875 -1.265625 -2.59375 -1.265625q-1.609375 0 -2.671875 1.25q-1.0625 1.234375 -1.0625 3.671875zm29.796875 -3.109375l-4.328125 0.78125q-0.21875 -1.296875 -1.0 -1.953125q-0.765625 -0.65625 -2.0 -0.65625q-1.640625 0 -2.625 1.140625q-0.96875 1.125 -0.96875 3.78125q0 2.953125 0.984375 4.171875q1.0 1.21875 2.671875 1.21875q1.25 0 2.046875 -0.703125q0.796875 -0.71875 1.125 -2.453125l4.3125 0.734375q-0.671875 2.96875 -2.578125 4.484375q-1.90625 1.515625 -5.109375 1.515625q-3.640625 0 -5.8125 -2.296875q-2.15625 -2.296875 -2.15625 -6.359375q0 -4.109375 2.171875 -6.390625q2.171875 -2.296875 5.875 -2.296875q3.03125 0 4.8125 1.3125q1.796875 1.296875 2.578125 3.96875zm3.328125 -7.15625l0 -4.0625l4.390625 0l0 4.0625l-4.390625 0zm0 18.84375l0 -16.59375l4.390625 0l0 16.59375l-4.390625 0zm7.875 -8.53125q0 -2.1875 1.078125 -4.234375q1.078125 -2.046875 3.046875 -3.125q1.984375 -1.078125 4.421875 -1.078125q3.765625 0 6.171875 2.453125q2.40625 2.4375 2.40625 6.171875q0 3.765625 -2.4375 6.25q-2.421875 2.46875 -6.109375 2.46875q-2.28125 0 -4.359375 -1.03125q-2.0625 -1.03125 -3.140625 -3.015625q-1.078125 -2.0 -1.078125 -4.859375zm4.5 0.234375q0 2.46875 1.171875 3.78125q1.171875 1.3125 2.890625 1.3125q1.71875 0 2.875 -1.3125q1.171875 -1.3125 1.171875 -3.8125q0 -2.4375 -1.171875 -3.75q-1.15625 -1.3125 -2.875 -1.3125q-1.71875 0 -2.890625 1.3125q-1.171875 1.3125 -1.171875 3.78125zm31.15625 8.296875l-4.390625 0l0 -8.46875q0 -2.6875 -0.28125 -3.46875q-0.28125 -0.796875 -0.921875 -1.234375q-0.625 -0.4375 -1.515625 -0.4375q-1.140625 0 -2.046875 0.625q-0.90625 0.625 -1.25 1.65625q-0.328125 1.03125 -0.328125 3.8125l0 7.515625l-4.390625 0l0 -16.59375l4.078125 0l0 2.4375q2.171875 -2.8125 5.46875 -2.8125q1.453125 0 2.65625 0.53125q1.203125 0.515625 1.8125 1.328125q0.625 0.8125 0.859375 1.84375q0.25 1.03125 0.25 2.953125l0 10.3125zm14.0625 -5.28125l4.375 0.734375q-0.84375 2.40625 -2.671875 3.671875q-1.8125 1.25 -4.546875 1.25q-4.328125 0 -6.40625 -2.828125q-1.640625 -2.265625 -1.640625 -5.71875q0 -4.125 2.15625 -6.453125q2.15625 -2.34375 5.453125 -2.34375q3.703125 0 5.84375 2.453125q2.140625 2.4375 2.046875 7.484375l-11.0 0q0.046875 1.953125 1.0625 3.046875q1.015625 1.078125 2.53125 1.078125q1.03125 0 1.734375 -0.5625q0.703125 -0.5625 1.0625 -1.8125zm0.25 -4.4375q-0.046875 -1.90625 -0.984375 -2.890625q-0.9375 -1.0 -2.28125 -1.0q-1.4375 0 -2.375 1.046875q-0.9375 1.046875 -0.921875 2.84375l6.5625 0zm6.390625 4.984375l4.40625 -0.671875q0.28125 1.28125 1.140625 1.953125q0.859375 0.65625 2.40625 0.65625q1.703125 0 2.5625 -0.625q0.578125 -0.4375 0.578125 -1.171875q0 -0.5 -0.3125 -0.828125q-0.328125 -0.3125 -1.46875 -0.578125q-5.3125 -1.171875 -6.734375 -2.140625q-1.96875 -1.34375 -1.96875 -3.734375q0 -2.15625 1.703125 -3.625q1.703125 -1.46875 5.28125 -1.46875q3.40625 0 5.0625 1.109375q1.65625 1.109375 2.28125 3.28125l-4.140625 0.765625q-0.265625 -0.96875 -1.015625 -1.484375q-0.734375 -0.515625 -2.109375 -0.515625q-1.734375 0 -2.484375 0.484375q-0.5 0.34375 -0.5 0.890625q0 0.46875 0.4375 0.796875q0.59375 0.4375 4.09375 1.234375q3.515625 0.796875 4.90625 1.953125q1.375 1.171875 1.375 3.265625q0 2.28125 -1.90625 3.921875q-1.90625 1.640625 -5.640625 1.640625q-3.390625 0 -5.375 -1.375q-1.96875 -1.375 -2.578125 -3.734375z" fill-rule="nonzero"/><path fill="#9fc5e8" d="m523.71655 337.4957l0 0c0 -12.854553 10.420654 -23.275238 23.275208 -23.275238l279.08734 0c6.1729736 0 12.09314 2.4522095 16.458069 6.817169c4.364929 4.3649597 6.8171387 10.285095 6.8171387 16.458069l0 45.008606c0 12.854553 -10.420654 23.275238 -23.275208 23.275238l-279.08734 0c-12.854553 0 -23.275208 -10.420685 -23.275208 -23.275238z" fill-rule="evenodd"/><path stroke="#000000" stroke-width="3.0" stroke-linejoin="round" stroke-linecap="butt" d="m523.71655 337.4957l0 0c0 -12.854553 10.420654 -23.275238 23.275208 -23.275238l279.08734 0c6.1729736 0 12.09314 2.4522095 16.458069 6.817169c4.364929 4.3649597 6.8171387 10.285095 6.8171387 16.458069l0 45.008606c0 12.854553 -10.420654 23.275238 -23.275208 23.275238l-279.08734 0c-12.854553 0 -23.275208 -10.420685 -23.275208 -23.275238z" fill-rule="evenodd"/><path fill="#000000" d="m650.6683 371.72l0 -22.90625l4.5 0l9.375 15.296875l0 -15.296875l4.296875 0l0 22.90625l-4.640625 0l-9.234375 -14.9375l0 14.9375l-4.296875 0zm23.03125 -18.84375l0 -4.0625l4.390625 0l0 4.0625l-4.390625 0zm0 18.84375l0 -16.59375l4.390625 0l0 16.59375l-4.390625 0zm13.453125 0l-6.6875 -16.59375l4.609375 0l3.125 8.46875l0.90625 2.828125q0.359375 -1.078125 0.453125 -1.421875q0.21875 -0.703125 0.46875 -1.40625l3.15625 -8.46875l4.515625 0l-6.59375 16.59375l-3.953125 0zm22.84375 -5.28125l4.375 0.734375q-0.84375 2.40625 -2.671875 3.671875q-1.8125 1.25 -4.546875 1.25q-4.328125 0 -6.40625 -2.828125q-1.640625 -2.265625 -1.640625 -5.71875q0 -4.125 2.15625 -6.453125q2.15625 -2.34375 5.453125 -2.34375q3.703125 0 5.84375 2.453125q2.140625 2.4375 2.046875 7.484375l-11.0 0q0.046875 1.953125 1.0625 3.046875q1.015625 1.078125 2.53125 1.078125q1.03125 0 1.734375 -0.5625q0.703125 -0.5625 1.0625 -1.8125zm0.25 -4.4375q-0.046875 -1.90625 -0.984375 -2.890625q-0.9375 -1.0 -2.28125 -1.0q-1.4375 0 -2.375 1.046875q-0.9375 1.046875 -0.921875 2.84375l6.5625 0zm7.9375 9.71875l0 -22.90625l4.390625 0l0 22.90625l-4.390625 0z" fill-rule="nonzero"/><path fill="#9fc5e8" d="m523.71655 513.61383l0 0c0 -12.854584 10.420654 -23.275238 23.275208 -23.275238l279.08734 0c6.1729736 0 12.09314 2.4522095 16.458069 6.8171387c4.364929 4.3649597 6.8171387 10.285095 6.8171387 16.4581l0 45.008606c0 12.854553 -10.420654 23.275208 -23.275208 23.275208l-279.08734 0c-12.854553 0 -23.275208 -10.420654 -23.275208 -23.275208z" fill-rule="evenodd"/><path stroke="#000000" stroke-width="3.0" stroke-linejoin="round" stroke-linecap="butt" d="m523.71655 513.61383l0 0c0 -12.854584 10.420654 -23.275238 23.275208 -23.275238l279.08734 0c6.1729736 0 12.09314 2.4522095 16.458069 6.8171387c4.364929 4.3649597 6.8171387 10.285095 6.8171387 16.4581l0 45.008606c0 12.854553 -10.420654 23.275208 -23.275208 23.275208l-279.08734 0c-12.854553 0 -23.275208 -10.420654 -23.275208 -23.275208z" fill-rule="evenodd"/><path fill="#000000" d="m572.3245 547.83813l0 -22.90625l6.921875 0l4.15625 15.625l4.109375 -15.625l6.9375 0l0 22.90625l-4.296875 0l0 -18.03125l-4.546875 18.03125l-4.453125 0l-4.53125 -18.03125l0 18.03125l-4.296875 0zm36.296875 -5.28125l4.375 0.734375q-0.84375 2.40625 -2.671875 3.671875q-1.8125 1.25 -4.546875 1.25q-4.328125 0 -6.40625 -2.828125q-1.640625 -2.265625 -1.640625 -5.71875q0 -4.125 2.15625 -6.453125q2.15625 -2.34375 5.453125 -2.34375q3.703125 0 5.84375 2.453125q2.140625 2.4375 2.046875 7.484375l-11.0 0q0.046875 1.953125 1.0625 3.046875q1.015625 1.078125 2.53125 1.078125q1.03125 0 1.734375 -0.5625q0.703125 -0.5625 1.0625 -1.8125zm0.25 -4.4375q-0.046875 -1.90625 -0.984375 -2.890625q-0.9375 -1.0 -2.28125 -1.0q-1.4375 0 -2.375 1.046875q-0.9375 1.046875 -0.921875 2.84375l6.5625 0zm23.03125 9.71875l-4.390625 0l0 -8.46875q0 -2.6875 -0.28125 -3.46875q-0.28125 -0.796875 -0.921875 -1.234375q-0.625 -0.4375 -1.515625 -0.4375q-1.140625 0 -2.046875 0.625q-0.90625 0.625 -1.25 1.65625q-0.328125 1.03125 -0.328125 3.8125l0 7.515625l-4.390625 0l0 -16.59375l4.078125 0l0 2.4375q2.171875 -2.8125 5.46875 -2.8125q1.453125 0 2.65625 0.53125q1.203125 0.515625 1.8125 1.328125q0.625 0.8125 0.859375 1.84375q0.25 1.03125 0.25 2.953125l0 10.3125zm15.375 0l0 -2.484375q-0.90625 1.328125 -2.390625 2.09375q-1.46875 0.765625 -3.109375 0.765625q-1.671875 0 -3.0 -0.734375q-1.328125 -0.734375 -1.921875 -2.0625q-0.59375 -1.328125 -0.59375 -3.671875l0 -10.5l4.390625 0l0 7.625q0 3.5 0.234375 4.296875q0.25 0.78125 0.890625 1.25q0.640625 0.453125 1.625 0.453125q1.125 0 2.015625 -0.609375q0.890625 -0.625 1.21875 -1.53125q0.328125 -0.921875 0.328125 -4.484375l0 -7.0l4.390625 0l0 16.59375l-4.078125 0zm-5.296875 -18.625l2.15625 -4.671875l4.921875 0l-4.296875 4.671875l-2.78125 0zm38.03125 18.625l-4.078125 0l0 -2.4375q-1.015625 1.421875 -2.40625 2.125q-1.375 0.6875 -2.78125 0.6875q-2.859375 0 -4.90625 -2.296875q-2.03125 -2.3125 -2.03125 -6.4375q0 -4.21875 1.984375 -6.40625q1.984375 -2.203125 5.015625 -2.203125q2.78125 0 4.8125 2.3125l0 -8.25l4.390625 0l0 22.90625zm-11.71875 -8.65625q0 2.65625 0.734375 3.84375q1.0625 1.71875 2.96875 1.71875q1.515625 0 2.578125 -1.28125q1.0625 -1.296875 1.0625 -3.859375q0 -2.859375 -1.03125 -4.109375q-1.03125 -1.265625 -2.640625 -1.265625q-1.5625 0 -2.625 1.25q-1.046875 1.234375 -1.046875 3.703125zm25.65625 3.375l4.375 0.734375q-0.84375 2.40625 -2.671875 3.671875q-1.8125 1.25 -4.546875 1.25q-4.328125 0 -6.40625 -2.828125q-1.640625 -2.265625 -1.640625 -5.71875q0 -4.125 2.15625 -6.453125q2.15625 -2.34375 5.453125 -2.34375q3.703125 0 5.84375 2.453125q2.140625 2.4375 2.046875 7.484375l-11.0 0q0.046875 1.953125 1.0625 3.046875q1.015625 1.078125 2.53125 1.078125q1.03125 0 1.734375 -0.5625q0.703125 -0.5625 1.0625 -1.8125zm0.25 -4.4375q-0.046875 -1.90625 -0.984375 -2.890625q-0.9375 -1.0 -2.28125 -1.0q-1.4375 0 -2.375 1.046875q-0.9375 1.046875 -0.921875 2.84375l6.5625 0zm16.859375 9.71875l0 -22.90625l7.421875 0q4.21875 0 5.5 0.34375q1.96875 0.515625 3.296875 2.25q1.328125 1.71875 1.328125 4.453125q0 2.109375 -0.765625 3.546875q-0.765625 1.4375 -1.953125 2.265625q-1.171875 0.8125 -2.390625 1.078125q-1.65625 0.328125 -4.796875 0.328125l-3.015625 0l0 8.640625l-4.625 0zm4.625 -19.03125l0 6.5l2.53125 0q2.734375 0 3.65625 -0.359375q0.921875 -0.359375 1.4375 -1.125q0.53125 -0.765625 0.53125 -1.78125q0 -1.25 -0.734375 -2.0625q-0.734375 -0.8125 -1.859375 -1.015625q-0.828125 -0.15625 -3.328125 -0.15625l-2.234375 0zm19.96875 7.5l-3.984375 -0.71875q0.671875 -2.40625 2.3125 -3.5625q1.640625 -1.15625 4.875 -1.15625q2.9375 0 4.375 0.703125q1.4375 0.6875 2.015625 1.765625q0.59375 1.0625 0.59375 3.921875l-0.046875 5.125q0 2.1875 0.203125 3.234375q0.21875 1.03125 0.796875 2.21875l-4.34375 0q-0.171875 -0.4375 -0.421875 -1.296875q-0.109375 -0.390625 -0.15625 -0.515625q-1.125 1.09375 -2.40625 1.640625q-1.28125 0.546875 -2.734375 0.546875q-2.5625 0 -4.046875 -1.390625q-1.46875 -1.390625 -1.46875 -3.515625q0 -1.40625 0.671875 -2.5q0.671875 -1.109375 1.875 -1.6875q1.21875 -0.59375 3.5 -1.03125q3.078125 -0.578125 4.265625 -1.078125l0 -0.4375q0 -1.265625 -0.625 -1.796875q-0.625 -0.546875 -2.359375 -0.546875q-1.171875 0 -1.828125 0.46875q-0.65625 0.453125 -1.0625 1.609375zm5.875 3.5625q-0.84375 0.28125 -2.671875 0.671875q-1.828125 0.390625 -2.390625 0.765625q-0.859375 0.609375 -0.859375 1.546875q0 0.921875 0.6875 1.59375q0.6875 0.671875 1.75 0.671875q1.1875 0 2.265625 -0.78125q0.796875 -0.59375 1.046875 -1.453125q0.171875 -0.5625 0.171875 -2.140625l0 -0.875zm19.5625 7.96875l0 -2.484375q-0.90625 1.328125 -2.390625 2.09375q-1.46875 0.765625 -3.109375 0.765625q-1.671875 0 -3.0 -0.734375q-1.328125 -0.734375 -1.921875 -2.0625q-0.59375 -1.328125 -0.59375 -3.671875l0 -10.5l4.390625 0l0 7.625q0 3.5 0.234375 4.296875q0.25 0.78125 0.890625 1.25q0.640625 0.453125 1.625 0.453125q1.125 0 2.015625 -0.609375q0.890625 -0.625 1.21875 -1.53125q0.328125 -0.921875 0.328125 -4.484375l0 -7.0l4.390625 0l0 16.59375l-4.078125 0zm7.078125 -4.734375l4.40625 -0.671875q0.28125 1.28125 1.140625 1.953125q0.859375 0.65625 2.40625 0.65625q1.703125 0 2.5625 -0.625q0.578125 -0.4375 0.578125 -1.171875q0 -0.5 -0.3125 -0.828125q-0.328125 -0.3125 -1.46875 -0.578125q-5.3125 -1.171875 -6.734375 -2.140625q-1.96875 -1.34375 -1.96875 -3.734375q0 -2.15625 1.703125 -3.625q1.703125 -1.46875 5.28125 -1.46875q3.40625 0 5.0625 1.109375q1.65625 1.109375 2.28125 3.28125l-4.140625 0.765625q-0.265625 -0.96875 -1.015625 -1.484375q-0.734375 -0.515625 -2.109375 -0.515625q-1.734375 0 -2.484375 0.484375q-0.5 0.34375 -0.5 0.890625q0 0.46875 0.4375 0.796875q0.59375 0.4375 4.09375 1.234375q3.515625 0.796875 4.90625 1.953125q1.375 1.171875 1.375 3.265625q0 2.28125 -1.90625 3.921875q-1.90625 1.640625 -5.640625 1.640625q-3.390625 0 -5.375 -1.375q-1.96875 -1.375 -2.578125 -3.734375zm22.625 -6.796875l-3.984375 -0.71875q0.671875 -2.40625 2.3125 -3.5625q1.640625 -1.15625 4.875 -1.15625q2.9375 0 4.375 0.703125q1.4375 0.6875 2.015625 1.765625q0.59375 1.0625 0.59375 3.921875l-0.046875 5.125q0 2.1875 0.203125 3.234375q0.21875 1.03125 0.796875 2.21875l-4.34375 0q-0.171875 -0.4375 -0.421875 -1.296875q-0.109375 -0.390625 -0.15625 -0.515625q-1.125 1.09375 -2.40625 1.640625q-1.28125 0.546875 -2.734375 0.546875q-2.5625 0 -4.046875 -1.390625q-1.46875 -1.390625 -1.46875 -3.515625q0 -1.40625 0.671875 -2.5q0.671875 -1.109375 1.875 -1.6875q1.21875 -0.59375 3.5 -1.03125q3.078125 -0.578125 4.265625 -1.078125l0 -0.4375q0 -1.265625 -0.625 -1.796875q-0.625 -0.546875 -2.359375 -0.546875q-1.171875 0 -1.828125 0.46875q-0.65625 0.453125 -1.0625 1.609375zm5.875 3.5625q-0.84375 0.28125 -2.671875 0.671875q-1.828125 0.390625 -2.390625 0.765625q-0.859375 0.609375 -0.859375 1.546875q0 0.921875 0.6875 1.59375q0.6875 0.671875 1.75 0.671875q1.1875 0 2.265625 -0.78125q0.796875 -0.59375 1.046875 -1.453125q0.171875 -0.5625 0.171875 -2.140625l0 -0.875z" fill-rule="nonzero"/><path fill="#000000" fill-opacity="0.0" d="m480.0 229.66142l0 42.27922l-231.52756 0l0 42.28769" fill-rule="evenodd"/><path stroke="#000000" stroke-width="3.0" stroke-linejoin="round" stroke-linecap="butt" d="m480.0 247.66142l0 24.27922l-231.52756 0l0 24.28769" fill-rule="evenodd"/><path fill="#000000" stroke="#000000" stroke-width="3.0" stroke-linecap="butt" d="m484.9552 247.66142l-4.9552 -13.614304l-4.9552 13.614304z" fill-rule="evenodd"/><path fill="#000000" stroke="#000000" stroke-width="3.0" stroke-linecap="butt" d="m243.51724 296.22833l4.9552 13.614319l4.9552 -13.614319z" fill-rule="evenodd"/><path fill="#000000" fill-opacity="0.0" d="m480.0 229.66142l0 42.27922l206.55121 0l0 42.28769" fill-rule="evenodd"/><path stroke="#000000" stroke-width="3.0" stroke-linejoin="round" stroke-linecap="butt" d="m480.0 247.66142l0 24.27922l206.55121 0l0 24.28769" fill-rule="evenodd"/><path fill="#000000" stroke="#000000" stroke-width="3.0" stroke-linecap="butt" d="m484.9552 247.66142l-4.9552 -13.614304l-4.9552 13.614304z" fill-rule="evenodd"/><path fill="#000000" stroke="#000000" stroke-width="3.0" stroke-linecap="butt" d="m681.596 296.22833l4.9552 13.614319l4.9552 -13.614319z" fill-rule="evenodd"/><path fill="#000000" fill-opacity="0.0" d="m686.53546 405.77954l0 42.279236l0.06298828 0l0 42.28769" fill-rule="evenodd"/><path stroke="#000000" stroke-width="3.0" stroke-linejoin="round" stroke-linecap="butt" d="m686.53546 423.77954l0 24.279236l0.06298828 0l0 24.28769" fill-rule="evenodd"/><path fill="#000000" stroke="#000000" stroke-width="3.0" stroke-linecap="butt" d="m691.4906 423.77954l-4.955139 -13.614319l-4.9552 13.614319z" fill-rule="evenodd"/><path fill="#000000" stroke="#000000" stroke-width="3.0" stroke-linecap="butt" d="m681.64325 472.34647l4.9552 13.614288l4.9552 -13.614288z" fill-rule="evenodd"/><path fill="#000000" fill-opacity="0.0" d="m523.71655 536.1181l-275.2441 0l0 -130.33069" fill-rule="evenodd"/><path stroke="#000000" stroke-width="3.0" stroke-linejoin="round" stroke-linecap="butt" d="m505.71652 536.1181l-257.24408 0l0 -112.33069" fill-rule="evenodd"/><path fill="#000000" stroke="#000000" stroke-width="3.0" stroke-linecap="butt" d="m505.71652 541.0733l13.614288 -4.9552l-13.614288 -4.9552z" fill-rule="evenodd"/><path fill="#000000" stroke="#000000" stroke-width="3.0" stroke-linecap="butt" d="m253.42764 423.7874l-4.9552 -13.614319l-4.9552 13.614319z" fill-rule="evenodd"/><path fill="#000000" fill-opacity="0.0" d="m849.3543 536.1181l24.995667 0l0 -352.22046l-185.62555 0" fill-rule="evenodd"/><path stroke="#000000" stroke-width="3.0" stroke-linejoin="round" stroke-linecap="butt" d="m867.3543 536.1181l6.9956665 0l0 -352.22046l-167.62555 0" fill-rule="evenodd"/><path fill="#000000" stroke="#000000" stroke-width="3.0" stroke-linecap="butt" d="m867.3543 531.1629l-13.614258 4.9552l13.614258 4.9552z" fill-rule="evenodd"/><path fill="#000000" stroke="#000000" stroke-width="3.0" stroke-linecap="butt" d="m706.7244 178.94244l-13.614319 4.9552l13.614319 4.955185z" fill-rule="evenodd"/></g></svg>